<?xml version="1.0" standalone="no"?> <!DOCTYPE svg PUBLIC "-//W3C//DTD SVG 1.0//EN" "http://www.w3.org/TR/2001/REC-SVG-20010904/DTD/svg10.dtd" > <svg xmlns="http://www.w3.org/2000/svg" width="100%" height="100%">
<defs >
<font id="helveticaneueltstdhvcn" horiz-adv-x="863" ><font-face
    font-family="HelveticaNeueLT Std Med Cn"
    units-per-em="2048"
    panose-1="2 11 8 6 4 7 2 4 2 4"
    ascent="1462"
    descent="-586"
    alphabetic="0" />
<missing-glyph horiz-adv-x="1024" d="M0 0V1434H1024V0H0ZM512 809L860 1331H164L512 809ZM573 717L922 195V1239L573 717ZM164 102H860L512 625L164 102ZM102 1239V195L451 717L102 1239Z" />
<glyph unicode=" " glyph-name="space" horiz-adv-x="532" />
<glyph unicode="!" glyph-name="exclam" horiz-adv-x="684" d="M176 983V1462H508V983L471 418H217L176 983ZM184 0V307H504V0H184Z" />
<glyph unicode="&quot;" glyph-name="quotedbl" horiz-adv-x="985" d="M571 748V1462H838V748H571ZM147 748V1462H414V748H147Z" />
<glyph unicode="#" glyph-name="numbersign" horiz-adv-x="1064" d="M135 0L182 350H33V580H215L252 842H102V1071H285L332 1421H559L510 1071H657L707 1421H932L883 1071H1032V842H850L813 580H963V350H780L733 0H508L555 350H408L360 0H135ZM588 580L625 842H477L440
580H588Z" />
<glyph unicode="$" glyph-name="dollar" horiz-adv-x="1064" d="M444 -209V-29Q359 -24 291 -3T165 59T75 171T43 340V434H375V387Q375 299 408 250T522 201Q605 201 641 248T678 362Q678 411 657 448T599 510T515 554T416 593T312 635T212 690T129 768T71 879T49
1032Q49 1206 144 1319T444 1450V1602H604V1450Q808 1434 901 1331T995 1063V1028H664Q664 1126 635 1174Q604 1221 530 1221Q464 1221 429 1185T393 1075Q393 1027 414 991T472 930T556 885T655 846T760 804T859 749T942 674T1000 568T1022 424Q1022 206 916 97T604
-29V-209H444Z" />
<glyph unicode="%" glyph-name="percent" horiz-adv-x="1593" d="M281 1057Q281 935 298 885T362 834Q414 834 429 881T444 1067Q444 1158 436 1204T411 1265T362 1280Q327 1280 308 1249T283 1171T281 1057ZM375 -29L1018 1450H1225L582 -29H375ZM1149 365Q1149
243 1166 192T1231 141Q1283 141 1298 188T1313 375Q1313 466 1304 512T1279 573T1231 588Q1204 588 1187 571T1161 522T1150 452T1149 365ZM39 1057Q39 1151 53 1218T101 1340T201 1422T362 1450Q424 1450 472 1439T554 1411T612 1364T651 1303T673 1229T683 1148T686
1057T684 967T673 885T651 811T613 751T556 704T474 675T365 664Q280 664 219 685T124 739T70 826T45 931T39 1057ZM907 291T907 365T915 496T945 603T1003 687T1096 739T1231 758Q1316 758 1376 737T1471 684T1524 596T1548 490T1554 365Q1554 313 1552 274T1541
192T1519 118T1481 58T1424 11T1343 -18T1233 -29Q1148 -29 1087 -8T992 46T938 133T913 239Z" />
<glyph unicode="&amp;" glyph-name="ampersand" horiz-adv-x="1290" d="M459 1174Q459 1141 477 1102T513 1037T563 971Q604 1005 627 1028T670 1090T690 1171Q690 1223 656 1254T571 1286Q527 1286 493 1256T459 1174ZM700 299L481 598Q360 513 360 406Q360 334
414 280T545 225Q589 225 630 245T700 299ZM713 768L901 512Q947 578 958 707H1249Q1241 572 1202 465T1079 270L1280 0H918L852 90Q766 30 681 1T489 -29Q392 -29 314 -4T186 61T103 156T55 265T41 379Q41 441 55 494T91 587T153 669T229 740T324 813Q267 887
224 974T180 1137Q180 1248 235 1326T378 1442T580 1479Q748 1479 858 1394T969 1151Q969 1086 950 1032T890 929T812 849T713 768Z" />
<glyph unicode="&apos;" glyph-name="quotesingle" horiz-adv-x="532" d="M133 748V1462H399V748H133Z" />
<glyph unicode="(" glyph-name="parenleft" horiz-adv-x="645" d="M655 -377H389Q261 -170 181 67T100 543T180 1018T389 1462H655Q552 1287 486 1048T420 543T486 38T655 -377Z" />
<glyph unicode=")" glyph-name="parenright" horiz-adv-x="645" d="M-10 1462H256Q384 1255 464 1019T545 543Q545 303 465 66T256 -377H-10Q93 -202 159 37T225 543T159 1048T-10 1462Z" />
<glyph unicode="*" glyph-name="asterisk" horiz-adv-x="835" d="M16 1108L76 1284L330 1186L326 1462H510L506 1186L758 1284L819 1108L561 1022L729 805L578 694L418 915L258 694L109 805L274 1022L16 1108Z" />
<glyph unicode="+" glyph-name="plus" horiz-adv-x="1228" d="M481 0V385H96V651H481V1036H748V651H1133V385H748V0H481Z" />
<glyph unicode="," glyph-name="comma" horiz-adv-x="532" d="M106 12V369H426V63Q426 -5 420 -57T393 -163T339 -254T246 -316T106 -346V-186Q175 -186 204 -139T233 12H106Z" />
<glyph unicode="-" glyph-name="hyphen" horiz-adv-x="757" d="M70 453V731H688V453H70Z" />
<glyph unicode="." glyph-name="period" horiz-adv-x="532" d="M106 0V369H426V0H106Z" />
<glyph unicode="/" glyph-name="slash" horiz-adv-x="720" d="M-12 -29L455 1491H733L266 -29H-12Z" />
<glyph unicode="0" glyph-name="zero" horiz-adv-x="1064" d="M399 819T399 709T400 527T407 393T422 295T446 233T481 198T532 188T582 197T618 233T643 294T657 392T664 527T666 709T665 891T658 1027T643 1126T619 1188T583 1223T532 1233T482 1224T446 1188T422
1127T408 1028T401 892ZM1010 711Q1010 635 1008 576T999 451T982 334T953 232T909 143T848 71T767 16T663 -17T532 -29Q451 -29 387 -17T275 21T191 81T131 166T92 271T68 399T58 544T55 711Q55 787 57 846T66 971T83 1087T112 1189T156 1279T217 1350T298 1405T402
1438T532 1450Q604 1450 663 1440T768 1411T849 1362T910 1296T954 1211T983 1111T1000 992T1008 860T1010 711Z" />
<glyph unicode="1" glyph-name="one" horiz-adv-x="1064" d="M403 0V1006H125V1223H168Q464 1223 506 1450H748V0H403Z" />
<glyph unicode="2" glyph-name="two" horiz-adv-x="1064" d="M397 967H78V1014Q78 1450 545 1450Q673 1450 763 1420T902 1332T972 1205T993 1044Q993 934 972 861T905 726T764 573Q740 550 687 500T612 428T558 373T508 315T481 266H995V0H70Q70 98 93 189T149
346T230 475T315 576T397 653Q470 718 518 768T593 853T631 923T646 980T649 1042Q649 1137 624 1185T528 1233Q501 1233 480 1224T445 1201T422 1163T408 1119T401 1067T398 1017T397 967Z" />
<glyph unicode="3" glyph-name="three" horiz-adv-x="1064" d="M66 426H397Q397 374 402 334T421 260T460 207T524 188Q592 188 623 235T655 401Q655 539 617 586T475 633H393V850H487Q568 850 601 903T635 1067Q635 1153 608 1193T520 1233Q457 1233 422 1186T387
1024H80Q80 1242 190 1343Q303 1450 545 1450Q759 1450 863 1354T967 1051Q967 939 913 861T760 760V756Q888 729 943 646T999 408Q999 294 964 208T866 71T722 -4T543 -29Q452 -29 383 -18T252 25T151 106T89 237T66 426Z" />
<glyph unicode="4" glyph-name="four" horiz-adv-x="1064" d="M565 547V1032H561L317 547H565ZM45 281V547L516 1421H885V547H1020V281H885V0H565V281H45Z" />
<glyph unicode="5" glyph-name="five" horiz-adv-x="1064" d="M57 426H389V373Q389 188 512 188Q590 188 617 263T645 500Q645 629 615 690T518 752Q468 752 433 724T391 637H72L117 1421H930V1155H381L365 883L369 879Q395 931 465 962T608 993Q806 993 897 873T989
489Q989 216 875 94T514 -29Q287 -29 172 75T57 373V426Z" />
<glyph unicode="6" glyph-name="six" horiz-adv-x="1064" d="M981 1079H649Q649 1152 629 1188Q603 1233 545 1233Q486 1233 456 1196T412 1073T399 823H403Q469 950 662 950Q834 950 922 844T1010 500Q1010 408 998 334T953 190T868 74T732 -1T535 -29Q444 -29
374 -12T253 34T166 113T109 217T75 349T59 501T55 678Q55 986 88 1125Q135 1317 272 1392Q379 1450 559 1450Q975 1450 981 1079ZM539 188Q609 188 637 251T666 440Q666 580 640 638T537 696Q488 696 459 664T421 585T412 465Q412 398 418 350T437 264T476 207T539
188Z" />
<glyph unicode="7" glyph-name="seven" horiz-adv-x="1064" d="M659 1130H66V1421H989V1165Q827 919 717 585T596 0H240Q255 252 379 589T659 1130Z" />
<glyph unicode="8" glyph-name="eight" horiz-adv-x="1064" d="M532 1450Q973 1450 973 1075Q973 952 920 872T768 770V766Q884 747 949 658T1014 424Q1014 345 1002 282T958 159T873 59T734 -5T532 -29Q435 -29 360 -14T232 31T144 99T88 191T60 299T51 424Q51
557 110 652T291 766V770Q197 795 145 873T92 1075Q92 1250 197 1350T532 1450ZM470 864T532 864T623 906T653 1051Q653 1233 532 1233Q412 1233 412 1051Q412 948 441 906ZM532 647Q455 647 425 588T395 420Q395 350 405 302T447 221T532 188Q609 188 639 249T670
420Q670 472 664 510T643 581T600 630T532 647Z" />
<glyph unicode="9" glyph-name="nine" horiz-adv-x="1064" d="M84 340H416Q416 269 436 233Q463 188 520 188Q579 188 609 225T653 348T666 598H662Q596 471 403 471Q231 471 143 578T55 922Q55 1014 67 1088T112 1231T197 1347T333 1422T530 1450Q621 1450 691
1433T812 1387T898 1308T955 1205T989 1073T1006 920T1010 743Q1010 435 977 296Q930 104 793 29Q686 -29 506 -29Q90 -29 84 340ZM528 725Q577 725 606 757T644 836T653 956Q653 1023 647 1071T628 1157T589 1214T526 1233Q456 1233 428 1170T399 981Q399 841
425 783T528 725Z" />
<glyph unicode=":" glyph-name="colon" horiz-adv-x="532" d="M106 0V369H426V0H106ZM106 721V1090H426V721H106Z" />
<glyph unicode=";" glyph-name="semicolon" horiz-adv-x="532" d="M106 12V369H426V63Q426 -5 420 -57T393 -163T339 -254T246 -316T106 -346V-186Q175 -186 204 -139T233 12H106ZM106 721V1090H426V721H106Z" />
<glyph unicode="&lt;" glyph-name="less" horiz-adv-x="1228" d="M96 385V651L1133 1053V786L440 518L1133 250V-16L96 385Z" />
<glyph unicode="=" glyph-name="equal" horiz-adv-x="1228" d="M96 608V874H1133V608H96ZM96 162V428H1133V162H96Z" />
<glyph unicode="&gt;" glyph-name="greater" horiz-adv-x="1228" d="M1133 651V385L96 -16V250L788 518L96 786V1053L1133 651Z" />
<glyph unicode="?" glyph-name="question" horiz-adv-x="1024" d="M387 1006H80V1047Q80 1260 187 1375T508 1491Q717 1491 830 1387T944 1094Q944 1012 922 942T867 826T796 734T724 655T669 576T647 485V418H340V483Q340 581 356 645T410 762Q433 794 477 838T550
912T602 998T625 1124Q625 1200 599 1237T512 1274Q446 1274 417 1212T387 1006ZM334 0V307H653V0H334Z" />
<glyph unicode="@" glyph-name="at" horiz-adv-x="1638" d="M1004 768Q1004 838 958 885T846 932Q746 932 676 848T606 666Q606 589 647 539T760 489Q861 489 932 576T1004 768ZM1077 999L1104 1106H1282L1163 594Q1151 538 1151 512Q1151 469 1190 469Q1261 469
1330 570T1399 825Q1399 970 1325 1079T1129 1243T854 1298Q684 1298 551 1222T347 1017T276 727Q276 607 321 502T445 323T633 207T868 164Q1108 164 1313 293H1495Q1387 139 1223 55T862 -29Q697 -29 550 28T294 185T123 427T59 731Q59 891 122 1032T292 1274T546
1433T856 1491Q967 1491 1074 1463T1272 1380T1432 1251T1540 1079T1579 870Q1579 747 1538 644T1437 476T1304 367T1172 304T1069 285Q949 285 940 393H936Q893 345 830 315T690 285Q572 285 481 381T389 633Q389 760 442 874T597 1062T829 1137Q988 1137 1077
999Z" />
<glyph unicode="A" glyph-name="A" horiz-adv-x="1175" d="M711 545L586 1196H582L461 545H711ZM4 0L377 1462H807L1171 0H815L762 279H412L360 0H4Z" />
<glyph unicode="B" glyph-name="B" horiz-adv-x="1175" d="M106 0V1462H641Q835 1462 946 1371T1057 1102Q1057 974 994 883T827 772V768Q860 763 885 756T945 734T1004 693T1051 630T1086 535T1098 406Q1098 359 1090 316T1064 224T1009 138T921 67T791 18T614
0H106ZM451 1208V879H545Q713 879 713 1051Q713 1116 673 1162T547 1208H451ZM451 649V254H555Q653 254 697 307T741 444Q741 548 693 598T561 649H451Z" />
<glyph unicode="C" glyph-name="C" horiz-adv-x="1099" d="M1051 954H719Q719 1122 691 1192T580 1262Q545 1262 521 1252T480 1213T454 1150T439 1050T432 920T430 748Q430 659 431 599T434 480T442 384T455 312T474 259T502 226T539 206T588 201Q619 201 642
212T681 247T706 301T721 376T728 466T731 573H1063V522Q1063 421 1051 343T1005 193T915 74T766 -1T549 -29Q276 -29 168 150Q89 282 77 564Q74 637 74 741Q74 1008 105 1140Q161 1376 348 1452Q445 1491 582 1491Q816 1491 933 1379T1051 1016V954Z" />
<glyph unicode="D" glyph-name="D" horiz-adv-x="1175" d="M106 0V1462H616Q790 1462 894 1397T1050 1182T1102 778Q1102 656 1097 567T1078 393T1040 249T977 140T883 61T754 16T582 0H106ZM451 1208V254H543Q586 254 614 260T669 286T710 340T737 430T753 566T758
756Q758 851 755 914T744 1031T721 1116T683 1169T626 1200T547 1208H451Z" />
<glyph unicode="E" glyph-name="E" horiz-adv-x="1024" d="M106 0V1462H952V1184H451V891H922V612H451V279H975V0H106Z" />
<glyph unicode="F" glyph-name="F" horiz-adv-x="985" d="M106 0V1462H952V1184H451V891H922V612H451V0H106Z" />
<glyph unicode="G" glyph-name="G" horiz-adv-x="1138" d="M1057 1018H725Q725 1063 721 1097T705 1173T663 1238T588 1262Q552 1262 527 1251T484 1210T456 1143T440 1040T432 905T430 729Q430 417 459 309T588 201Q673 201 709 276T745 508V555H584V784H1065V0H829L821
139H817Q749 -29 502 -29Q424 -29 363 -12T257 35T180 114T127 221T95 356T79 515T74 700Q74 1006 106 1146Q153 1350 295 1429Q407 1491 594 1491Q686 1491 759 1473T880 1427T962 1356T1015 1275T1043 1184T1055 1098T1057 1018Z" />
<glyph unicode="H" glyph-name="H" horiz-adv-x="1175" d="M106 0V1462H451V915H725V1462H1069V0H725V625H451V0H106Z" />
<glyph unicode="I" glyph-name="I" horiz-adv-x="569" d="M113 0V1462H457V0H113Z" />
<glyph unicode="J" glyph-name="J" horiz-adv-x="1024" d="M573 440V1462H918V440Q918 334 895 252T822 105T682 6T469 -29Q243 -29 138 74T33 375V465H352V401Q352 363 353 342T360 290T377 243T410 214T465 201Q500 201 523 218T556 270T569 343T573 440Z" />
<glyph unicode="K" glyph-name="K" horiz-adv-x="1175" d="M106 0V1462H451V885H455L776 1462H1147L764 831L1194 0H807L543 551L451 410V0H106Z" />
<glyph unicode="L" glyph-name="L" horiz-adv-x="948" d="M106 0V1462H451V279H948V0H106Z" />
<glyph unicode="M" glyph-name="M" horiz-adv-x="1593" d="M117 0V1462H621L801 502H805L979 1462H1477V0H1157V1139H1153L930 0H664L428 1139H424V0H117Z" />
<glyph unicode="N" glyph-name="N" horiz-adv-x="1214" d="M106 0V1462H502L784 512H788V1462H1108V0H719L418 1008H414V0H106Z" />
<glyph unicode="O" glyph-name="O" horiz-adv-x="1175" d="M430 731Q430 418 459 310T586 201Q686 201 715 308T745 731Q745 839 743 910T735 1046T718 1148T689 1213T646 1251T586 1262Q488 1262 459 1154T430 731ZM1102 731Q1102 450 1068 314Q1013 91 838 15Q736
-29 588 -29Q492 -29 417 -11T288 40T196 124T134 236T97 378T79 542T74 731T78 920T96 1084T133 1226T195 1337T288 1422T417 1472T588 1491Q897 1491 1012 1292Q1090 1159 1100 886Q1102 823 1102 731Z" />
<glyph unicode="P" glyph-name="P" horiz-adv-x="1138" d="M106 0V1462H639Q743 1462 822 1433T948 1359T1023 1253T1061 1135T1071 1018Q1071 917 1046 838T966 697T820 604T602 571H451V0H106ZM451 1208V825H545Q715 825 715 1010Q715 1103 676 1155T539 1208H451Z" />
<glyph unicode="Q" glyph-name="Q" horiz-adv-x="1175" d="M430 731Q430 418 459 310T586 201Q686 201 715 308T745 731Q745 839 743 910T735 1046T718 1148T689 1213T646 1251T586 1262Q488 1262 459 1154T430 731ZM958 -213L764 -8Q745 -14 686 -23Q640 -29
588 -29Q492 -29 417 -11T288 40T196 124T134 236T97 378T79 542T74 731T78 920T96 1084T133 1226T195 1337T288 1422T417 1472T588 1491Q897 1491 1012 1292Q1090 1159 1100 886Q1102 823 1102 731Q1102 518 1082 379T993 141L1159 -29L958 -213Z" />
<glyph unicode="R" glyph-name="R" horiz-adv-x="1175" d="M451 1221V846H557Q607 846 643 863T697 909T724 969T733 1036Q733 1126 693 1173T555 1221H451ZM106 0V1462H684Q769 1462 837 1442T949 1386T1023 1302T1064 1198T1077 1081Q1077 925 1016 840T831
725V721Q877 714 913 701T973 670T1015 626T1041 573T1056 508T1064 437T1067 356Q1070 208 1076 143T1094 53T1133 18V0H762Q725 67 725 297Q725 425 711 490T668 580T582 604H451V0H106Z" />
<glyph unicode="S" glyph-name="S" horiz-adv-x="1099" d="M59 446H391V395Q391 303 424 252T541 201T660 251T696 375Q696 425 675 463T617 526T533 571T434 611T330 653T231 710T148 790T90 904T68 1061Q68 1133 83 1195T135 1313T225 1407T362 1468T547 1491Q672
1491 764 1461T910 1376T989 1250T1014 1092V1057H682Q682 1166 653 1210Q623 1262 549 1262Q483 1262 448 1222T412 1104Q412 1055 433 1018T491 956T575 910T674 870T778 827T877 771T960 694T1018 585T1040 436Q1040 194 913 83T541 -29Q59 -29 59 352V446Z"
/>
<glyph unicode="T" glyph-name="T" horiz-adv-x="983" d="M319 0V1184H12V1462H971V1184H664V0H319Z" />
<glyph unicode="U" glyph-name="U" horiz-adv-x="1138" d="M1051 1462V483Q1051 391 1040 320T996 180T912 68T773 -2T569 -29T366 -3T227 68T143 180T100 319T88 483V1462H432V383Q432 295 466 248T569 201Q638 201 672 248T707 383V1462H1051Z" />
<glyph unicode="V" glyph-name="V" horiz-adv-x="1099" d="M326 0L4 1462H373L547 332H551L727 1462H1096L764 0H326Z" />
<glyph unicode="W" glyph-name="W" horiz-adv-x="1593" d="M270 0L12 1462H356L483 422H487L639 1462H958L1122 422H1126L1249 1462H1581L1327 0H946L797 1038H793L651 0H270Z" />
<glyph unicode="X" glyph-name="X" horiz-adv-x="1138" d="M6 0L365 743L41 1462H422L571 1014H575L723 1462H1104L770 743L1133 0H739L565 481L387 0H6Z" />
<glyph unicode="Y" glyph-name="Y" horiz-adv-x="1097" d="M377 0V575L6 1462H387L551 920H555L723 1462H1092L721 575V0H377Z" />
<glyph unicode="Z" glyph-name="Z" horiz-adv-x="985" d="M47 0V254L543 1184H86V1462H938V1221L436 279H938V0H47Z" />
<glyph unicode="[" glyph-name="bracketleft" horiz-adv-x="681" d="M172 -377V1462H690V1233H479V-147H690V-377H172Z" />
<glyph unicode="\" glyph-name="backslash" horiz-adv-x="720" d="M455 -29L-12 1491H266L733 -29H455Z" />
<glyph unicode="]" glyph-name="bracketright" horiz-adv-x="681" d="M-8 -377V-147H203V1233H-8V1462H510V-377H-8Z" />
<glyph unicode="^" glyph-name="asciicircum" horiz-adv-x="1228" d="M115 633L498 1421H731L1114 633H860L614 1143L369 633H115Z" />
<glyph unicode="_" glyph-name="underscore" horiz-adv-x="1024" d="M0 -256V-154H1024V-256H0Z" />
<glyph unicode="`" glyph-name="grave" horiz-adv-x="532" d="M174 1225L-31 1516H289L391 1225H174Z" />
<glyph unicode="a" glyph-name="a" horiz-adv-x="1024" d="M381 768H86Q89 982 211 1065Q317 1137 520 1137Q726 1137 819 1060T913 809V240Q913 181 914 148T925 69T952 0H633Q618 50 614 127H610Q577 55 506 13T350 -29Q55 -29 55 309Q55 405 92 481T190 592Q227
612 275 627T395 660T487 682Q564 702 585 724T606 809Q606 920 502 920Q436 920 410 883T381 768ZM375 342Q375 276 400 239T471 201Q529 201 566 238T604 352Q604 404 605 467T606 547Q551 518 496 497T426 465Q375 426 375 342Z" />
<glyph unicode="b" glyph-name="b" horiz-adv-x="1062" d="M92 0V1462H424V987H428Q497 1137 676 1137Q733 1137 779 1122T858 1081T916 1012T956 923T981 813T993 687T997 545Q997 340 958 212T844 28T655 -29Q555 -29 496 19T416 135H412V0H92ZM418 547Q418
372 442 293T537 213Q567 213 589 225T626 265T648 319T660 393T665 472T666 561Q666 620 665 656T660 736T648 804T626 852T590 885T539 895Q506 895 483 877T448 830T428 753T420 660T418 547Z" />
<glyph unicode="c" glyph-name="c" horiz-adv-x="985" d="M944 690H637Q637 811 608 865T512 920Q479 920 456 903T420 857T400 780T390 679T387 553Q387 450 391 389T408 279T446 209T512 188Q584 188 609 244T637 451H944Q943 196 839 84T506 -29Q418 -29 350
-11T234 36T154 113T101 209T72 327T58 454T55 594Q55 692 67 770T110 918T191 1036T320 1110T506 1137Q633 1137 720 1106T856 1012T924 872T944 690Z" />
<glyph unicode="d" glyph-name="d" horiz-adv-x="1062" d="M651 0V135H647Q626 67 567 19T408 -29Q294 -29 220 27T106 212T66 545Q66 623 69 686T82 812T106 922T146 1012T204 1080T284 1122T387 1137Q566 1137 635 987H639V1462H971V0H651ZM645 547Q645 616
644 660T635 753T616 830T580 876T524 895Q494 895 473 885T438 852T416 804T403 736T398 657T397 561Q397 506 398 473T402 393T414 320T437 265T473 226T526 213Q596 213 620 292T645 547Z" />
<glyph unicode="e" glyph-name="e" horiz-adv-x="985" d="M946 500H387V432Q387 297 413 237T508 176Q570 176 596 223T629 379H936Q927 -29 506 -29Q418 -29 350 -11T234 36T154 113T101 209T72 327T58 454T55 594Q55 692 67 770T110 918T191 1036T320 1110T506
1137Q567 1137 618 1130T710 1107T782 1071T839 1021T880 961T909 887T928 804T940 711T945 610T946 500ZM387 692H627Q627 817 604 874T514 932Q438 932 413 874T387 692Z" />
<glyph unicode="f" glyph-name="f" horiz-adv-x="606" d="M135 0V879H-2V1108H135V1200Q135 1307 163 1368T265 1460T473 1491Q556 1491 621 1485V1262H573Q508 1262 488 1245T467 1178V1108H621V879H467V0H135Z" />
<glyph unicode="g" glyph-name="g" horiz-adv-x="1062" d="M664 958V1108H971V39Q971 -59 948 -132T872 -262T729 -348T510 -377Q94 -377 94 -70H401Q412 -119 436 -137Q468 -160 518 -160Q599 -160 625 -101T651 123V190H647Q589 27 385 27Q74 27 74 569Q74 632
76 683T87 795T110 903T149 995T207 1071T288 1119T397 1137Q592 1137 659 958H664ZM406 573Q406 400 432 334T526 268Q573 268 599 295T638 390T651 584Q651 743 626 813T530 883Q491 883 466 862T428 796T411 700T406 573Z" />
<glyph unicode="h" glyph-name="h" horiz-adv-x="1062" d="M92 0V1462H424V987H428Q501 1137 682 1137Q971 1137 971 829V0H639V756Q639 816 614 849T543 883Q492 883 458 843T424 725V0H92Z" />
<glyph unicode="i" glyph-name="i" horiz-adv-x="532" d="M100 0V1108H432V0H100ZM100 1225V1479H432V1225H100Z" />
<glyph unicode="j" glyph-name="j" horiz-adv-x="532" d="M100 12V1108H432V-27Q432 -119 419 -177T370 -278T266 -341T94 -360Q63 -360 -47 -356V-129Q-29 -131 0 -131Q29 -129 48 -123T77 -107T93 -78T99 -41T100 12ZM100 1225V1479H432V1225H100Z" />
<glyph unicode="k" glyph-name="k" horiz-adv-x="1062" d="M92 0V1462H424V711H428L676 1108H1040L723 662L1079 0H717L510 418L424 301V0H92Z" />
<glyph unicode="l" glyph-name="l" horiz-adv-x="532" d="M100 0V1462H432V0H100Z" />
<glyph unicode="m" glyph-name="m" horiz-adv-x="1630" d="M102 0V1108H422V977H426Q462 1052 531 1094T692 1137Q734 1137 769 1131T844 1109T916 1057T965 967Q1022 1062 1083 1099T1239 1137Q1528 1137 1528 829V0H1196V756Q1196 816 1171 849T1100 883Q1049
883 1015 843T981 725V0H649V756Q649 816 624 849T553 883Q502 883 468 843T434 725V0H102Z" />
<glyph unicode="n" glyph-name="n" horiz-adv-x="1062" d="M92 0V1108H412V977H416Q452 1052 521 1094T682 1137Q971 1137 971 829V0H639V756Q639 816 614 849T543 883Q492 883 458 843T424 725V0H92Z" />
<glyph unicode="o" glyph-name="o" horiz-adv-x="1024" d="M637 553Q637 765 613 842T514 920Q441 920 414 840T387 555Q387 350 414 269T514 188Q588 188 612 265T637 553ZM512 -29Q427 -29 359 -14T244 27T162 95T107 182T75 291T59 413T55 551Q55 658 65 740T106
899T185 1027T317 1107T512 1137Q597 1137 665 1122T780 1081T862 1013T917 926T949 817T965 695T969 557Q969 450 959 368T918 209T839 81T707 1T512 -29Z" />
<glyph unicode="p" glyph-name="p" horiz-adv-x="1062" d="M92 -360V1108H412V973H416Q437 1041 496 1089T655 1137Q769 1137 843 1081T957 896T997 563Q997 485 994 422T981 296T957 186T917 96T859 28T779 -14T676 -29Q497 -29 428 121H424V-360H92ZM418 561Q418
492 419 448T428 355T447 278T483 232T539 213Q568 213 590 223T625 256T647 304T660 372T665 451T666 547Q666 602 665 635T661 715T649 788T626 843T590 882T537 895Q467 895 443 816T418 561Z" />
<glyph unicode="q" glyph-name="q" horiz-adv-x="1062" d="M639 -360V121H635Q566 -29 387 -29Q330 -29 284 -14T205 27T147 96T107 185T82 295T70 421T66 563Q66 768 105 896T219 1080T408 1137Q508 1137 567 1089T647 973H651V1108H971V-360H639ZM645 561Q645
736 621 815T526 895Q496 895 474 883T437 843T415 789T403 715T398 636T397 547Q397 488 398 452T403 372T415 304T437 256T472 223T524 213Q557 213 580 231T615 278T635 355T643 448T645 561Z" />
<glyph unicode="r" glyph-name="r" horiz-adv-x="757" d="M92 0V1108H412V952H416Q452 1034 518 1085T682 1137Q715 1137 735 1133V821Q691 829 643 829Q424 829 424 629V0H92Z" />
<glyph unicode="s" glyph-name="s" horiz-adv-x="948" d="M51 352H346Q350 265 369 227Q400 176 471 176Q528 176 559 207T590 289Q590 380 463 424Q394 447 354 462T265 498T189 538T133 584T91 642T68 713T59 803Q59 967 169 1052T481 1137Q593 1137 674 1112T800
1041T863 942T883 825V788H588V809Q588 878 562 905T479 932Q417 932 392 905T367 829Q367 798 385 775T434 737T504 710T588 684T676 653T759 610T830 548T879 458T897 334Q897 164 787 68T473 -29Q253 -29 152 53T51 303V352Z" />
<glyph unicode="t" glyph-name="t" horiz-adv-x="645" d="M135 287V879H-2V1108H135V1434H467V1108H621V879H467V319Q467 262 491 240T573 217Q591 217 621 221V0Q525 -12 430 -12Q338 -12 286 -2T198 41T148 131T135 287Z" />
<glyph unicode="u" glyph-name="u" horiz-adv-x="1062" d="M971 1108V0H651V131H647Q611 56 542 14T381 -29Q92 -29 92 279V1108H424V352Q424 292 449 259T520 225Q571 225 605 265T639 383V1108H971Z" />
<glyph unicode="v" glyph-name="v" horiz-adv-x="985" d="M295 0L23 1108H367L496 291H500L631 1108H963L688 0H295Z" />
<glyph unicode="w" glyph-name="w" horiz-adv-x="1517" d="M250 0L18 1108H350L457 291H461L586 1108H942L1059 291H1063L1180 1108H1499L1260 0H885L764 817H760L631 0H250Z" />
<glyph unicode="x" glyph-name="x" horiz-adv-x="985" d="M8 0L305 573L27 1108H358L489 778L625 1108H956L680 573L977 0H645L496 358L340 0H8Z" />
<glyph unicode="y" glyph-name="y" horiz-adv-x="985" d="M334 -8L20 1108H365L500 332H504L633 1108H965L668 -8Q638 -119 608 -184T530 -290T419 -345T256 -360T113 -356V-123Q165 -131 195 -131Q310 -131 334 -8Z" />
<glyph unicode="z" glyph-name="z" horiz-adv-x="948" d="M63 0V254L481 854H82V1108H874V854L444 254H885V0H63Z" />
<glyph unicode="{" glyph-name="braceleft" horiz-adv-x="681" d="M186 -100V268Q186 346 131 399T-4 453V633Q72 633 129 681T186 803V1186Q186 1319 261 1390T479 1462H686V1233H604Q541 1233 518 1193T494 1083V772Q494 680 438 619T291 545V541Q494 513 494
299V2Q494 -147 604 -147H686V-377H479Q342 -377 264 -308T186 -100Z" />
<glyph unicode="|" glyph-name="bar" horiz-adv-x="454" d="M94 -29V1491H360V-29H94Z" />
<glyph unicode="}" glyph-name="braceright" horiz-adv-x="681" d="M188 2V313Q188 405 243 466T391 541V545Q188 572 188 786V1083Q188 1233 78 1233H-4V1462H203Q339 1462 417 1393T496 1186V817Q496 739 551 686T686 633V453Q610 453 553 405T496 283V-100Q496
-233 421 -305T203 -377H-4V-147H78Q141 -147 164 -107T188 2Z" />
<glyph unicode="~" glyph-name="asciitilde" horiz-adv-x="1228" d="M1014 721L1087 492Q994 315 836 315Q789 315 742 326T666 350T594 385Q590 387 567 399T537 415T511 427T482 439T456 447T427 453T399 455Q344 455 290 408T215 315L141 545Q236 721 393 721Q440
721 487 710T563 686T635 651Q733 600 774 589Q803 582 829 582Q884 582 938 628T1014 721Z" />
</font>
</defs>
</svg>
